<svg width="30" height="25" viewBox="0 0 30 25" fill="none" xmlns="http://www.w3.org/2000/svg">
<path d="M13.0781 23.9531C13.2188 24.0469 13.3594 24.0469 13.5 23.9531C13.5938 23.8594 13.6875 23.7656 13.7812 23.5781L20.1562 1.54688C20.2031 1.40625 20.2031 1.26562 20.1094 1.125C20.0156 1.03125 19.9219 0.9375 19.7812 0.84375L16.9219 0C16.7344 0 16.5938 0 16.5 0.09375C16.3594 0.1875 16.2656 0.28125 16.2188 0.421875L9.84375 22.4531C9.75 22.6406 9.75 22.7812 9.84375 22.875C9.9375 23.0156 10.0312 23.1094 10.2188 23.1562L13.0781 23.9531ZM7.73438 18.7031C7.64062 18.8438 7.5 18.8906 7.35938 18.8906C7.17188 18.8906 7.03125 18.8438 6.9375 18.75L0.1875 12.4219C0.046875 12.3281 0 12.1875 0 12C0 11.8594 0.046875 11.7188 0.1875 11.5781L6.9375 5.25C7.03125 5.15625 7.17188 5.10938 7.35938 5.10938C7.5 5.10938 7.64062 5.20312 7.73438 5.29688L9.75 7.45312C9.84375 7.59375 9.89062 7.73438 9.89062 7.875C9.89062 8.0625 9.84375 8.15625 9.75 8.25L5.48438 12L9.75 15.75C9.84375 15.8438 9.89062 15.9844 9.89062 16.125C9.89062 16.3125 9.84375 16.4531 9.75 16.5469L7.73438 18.7031ZM23.0625 18.75C22.9219 18.8438 22.7812 18.8906 22.6406 18.8906C22.4531 18.8906 22.3594 18.8438 22.2656 18.7031L20.25 16.5469C20.1094 16.4531 20.0625 16.3125 20.0625 16.125C20.0625 15.9844 20.1562 15.8438 20.25 15.75L24.5156 12L20.25 8.25C20.1562 8.15625 20.0625 8.0625 20.0625 7.875C20.0625 7.73438 20.1094 7.59375 20.25 7.45312L22.2656 5.29688C22.3594 5.20312 22.5 5.10938 22.6406 5.10938C22.7812 5.10938 22.9219 5.15625 23.0625 5.25L29.8125 11.5781C29.9062 11.7188 30 11.8594 30 12C30 12.1875 29.9062 12.3281 29.8125 12.4219L23.0625 18.75Z" fill="white"/>
</svg>
