<svg width="23" height="15" viewBox="0 0 23 15" fill="none" xmlns="http://www.w3.org/2000/svg">
<path d="M22.2266 6.5625C22.3828 6.875 22.5 7.1875 22.5 7.5C22.5 7.85156 22.3828 8.16406 22.2266 8.4375C21.0938 10.3516 19.5703 11.875 17.6562 12.9688C15.7031 14.1406 13.5547 14.6875 11.25 14.6875C8.90625 14.6875 6.79688 14.1406 4.84375 12.9688C2.89062 11.875 1.36719 10.3516 0.273438 8.4375C0.078125 8.16406 0 7.85156 0 7.5C0 7.1875 0.078125 6.875 0.273438 6.5625C1.36719 4.6875 2.89062 3.16406 4.84375 2.03125C6.79688 0.898438 8.90625 0.3125 11.25 0.3125C13.5547 0.3125 15.7031 0.898438 17.6562 2.03125C19.5703 3.16406 21.0938 4.6875 22.2266 6.5625ZM11.25 12.8125C12.1875 12.8125 13.0859 12.5781 13.9062 12.1094C14.6875 11.6406 15.3516 10.9766 15.8203 10.1562C16.2891 9.375 16.5625 8.47656 16.5625 7.5C16.5625 6.5625 16.2891 5.66406 15.8203 4.84375C15.3516 4.0625 14.6875 3.39844 13.9062 2.92969C13.0859 2.46094 12.1875 2.1875 11.25 2.1875C10.2734 2.1875 9.375 2.46094 8.59375 2.92969C7.77344 3.39844 7.10938 4.0625 6.64062 4.84375C6.17188 5.66406 5.9375 6.5625 5.9375 7.5C5.9375 8.47656 6.17188 9.375 6.64062 10.1562C7.10938 10.9766 7.77344 11.6406 8.59375 12.1094C9.375 12.5781 10.2734 12.8125 11.25 12.8125ZM15.3125 7.5C15.3125 6.40625 14.8828 5.42969 14.1016 4.64844C13.3203 3.86719 12.3438 3.4375 11.25 3.4375C10.5469 3.4375 9.92188 3.59375 9.33594 3.90625C9.80469 3.90625 10.1953 4.10156 10.5078 4.41406C10.8203 4.72656 11.0156 5.11719 11.0156 5.58594C11.0156 6.05469 10.8203 6.48438 10.5078 6.79688C10.1953 7.10938 9.80469 7.26562 9.33594 7.26562C8.86719 7.26562 8.4375 7.10938 8.125 6.79688C7.8125 6.48438 7.65625 6.05469 7.65625 5.58594C7.34375 6.21094 7.1875 6.83594 7.1875 7.5C7.1875 8.63281 7.57812 9.60938 8.35938 10.3906C9.14062 11.1719 10.1172 11.5625 11.25 11.5625C12.3438 11.5625 13.3203 11.1719 14.1016 10.3906C14.8828 9.60938 15.3125 8.63281 15.3125 7.5Z" fill="white"/>
</svg>
