<svg width="1920" height="427" viewBox="0 0 1920 427" fill="none" xmlns="http://www.w3.org/2000/svg">
<g clip-path="url(#clip0)">
<path d="M-311.599 -311.738L-235.096 -195.156C-158.418 -79.4279 -33.1258 89.1012 157.435 139.407C347.733 190.993 603.299 124.356 802.931 130.494C1002.56 136.632 1174.59 277.193 1364.88 328.779C1555.45 379.085 1871.28 276.879 1976 256.051L2018.45 311.624L1901.5 -276.951C1806.29 -302.424 1701.43 -260.792 1511 -311.738C1320.57 -362.684 1363.43 -261.935 1173 -312.881C982.571 -363.827 481.742 -261.935 291.313 -312.881C100.883 -363.827 -142.057 -453.031 -237.272 -478.504L-311.599 -311.738Z" fill="#151D28"/>
</g>
<defs>
<clipPath id="clip0">
<rect width="1920" height="1389" fill="white"/>
</clipPath>
</defs>
</svg>
