<svg width="295" height="294" viewBox="0 0 295 294" fill="none" xmlns="http://www.w3.org/2000/svg">
<g filter="url(#filter0_d)">
<path d="M120 143C120 128.088 132.088 116 147 116H148C162.912 116 175 128.088 175 143C175 157.912 162.912 170 148 170H147C132.088 170 120 157.912 120 143Z" fill="#151D28"/>
</g>
<path d="M139.438 133.32C137.838 133.336 136.414 133.712 135.166 134.448C133.918 135.184 132.942 136.2 132.238 137.496C131.55 138.792 131.206 140.264 131.206 141.912C131.206 143.48 131.534 144.904 132.19 146.184C132.862 147.464 133.814 148.48 135.046 149.232C136.294 149.968 137.758 150.336 139.438 150.336C141.038 150.32 142.462 149.952 143.71 149.232C144.958 148.496 145.926 147.48 146.614 146.184C147.318 144.888 147.67 143.408 147.67 141.744C147.67 140.176 147.342 138.752 146.686 137.472C146.03 136.192 145.078 135.184 143.83 134.448C142.598 133.696 141.134 133.32 139.438 133.32ZM135.094 141.888C135.094 140.816 135.294 139.872 135.694 139.056C136.094 138.224 136.622 137.584 137.278 137.136C137.95 136.688 138.686 136.464 139.486 136.464C140.35 136.464 141.102 136.696 141.742 137.16C142.398 137.608 142.902 138.232 143.254 139.032C143.606 139.832 143.782 140.736 143.782 141.744C143.782 142.928 143.59 143.928 143.206 144.744C142.822 145.56 142.294 146.176 141.622 146.592C140.966 146.992 140.23 147.192 139.414 147.192C138.086 147.192 137.03 146.704 136.246 145.728C135.478 144.736 135.094 143.456 135.094 141.888ZM150.406 150H154.15V144.336H157.078L160.126 150H164.326L160.51 143.28C161.278 142.848 161.886 142.264 162.334 141.528C162.782 140.792 163.006 139.944 163.006 138.984C163.006 137.224 162.39 135.904 161.158 135.024C159.926 134.128 158.35 133.68 156.43 133.68H150.406V150ZM156.31 136.704C157.206 136.704 157.894 136.896 158.374 137.28C158.854 137.664 159.094 138.256 159.094 139.056C159.094 139.776 158.838 140.344 158.326 140.76C157.83 141.16 157.174 141.36 156.358 141.36H154.15V136.704H156.31Z" fill="#0E1218"/>
<defs>
<filter id="filter0_d" x="0" y="0" width="295" height="294" filterUnits="userSpaceOnUse" color-interpolation-filters="sRGB">
<feFlood flood-opacity="0" result="BackgroundImageFix"/>
<feColorMatrix in="SourceAlpha" type="matrix" values="0 0 0 0 0 0 0 0 0 0 0 0 0 0 0 0 0 0 127 0"/>
<feOffset dy="4"/>
<feGaussianBlur stdDeviation="60"/>
<feColorMatrix type="matrix" values="0 0 0 0 0 0 0 0 0 0 0 0 0 0 0 0 0 0 1 0"/>
<feBlend mode="normal" in2="BackgroundImageFix" result="effect1_dropShadow"/>
<feBlend mode="normal" in="SourceGraphic" in2="effect1_dropShadow" result="shape"/>
</filter>
</defs>
</svg>
