<svg width="25" height="32" viewBox="0 0 25 32" fill="none" xmlns="http://www.w3.org/2000/svg">
<path d="M12.1629 9.5716e-05C10.5944 0.000227002 9.04125 0.309338 7.59217 0.909776C6.1431 1.51021 4.8265 2.39022 3.71756 3.49953C2.60861 4.60885 1.72905 5.92574 1.1291 7.37502C0.529145 8.82429 0.220554 10.3776 0.220948 11.9461V12.4271C0.564948 21.1041 9.62995 32.0001 9.62995 32.0001V17.6061C8.30671 17.0135 7.23232 15.9769 6.5928 14.6757C5.95327 13.3746 5.78887 11.8907 6.12805 10.4811C6.46723 9.07145 7.28864 7.8248 8.45007 6.95695C9.6115 6.0891 11.0398 5.65469 12.4878 5.72893C13.9357 5.80316 15.3122 6.38137 16.3788 7.36346C17.4453 8.34554 18.1349 9.66966 18.3282 11.1066C18.5214 12.5435 18.2061 14.0028 17.4369 15.2317C16.6676 16.4607 15.4929 17.382 14.1159 17.8361V23.7391C17.0844 23.2595 19.7629 21.6781 21.6166 19.3105C23.4704 16.943 24.3631 13.9634 24.1165 10.9665C23.87 7.96967 22.5023 5.17604 20.2865 3.14325C18.0708 1.11046 15.1699 -0.0119345 12.1629 9.5716e-05Z" fill="white"/>
</svg>
